{
  "accessors": [
    {
      "bufferView": 2,
      "componentType": 5126,
      "count": 15666,
      "max": [
        0.8500000238418579,
        0.07023745030164719,
        0.5
      ],
      "min": [
        -0.8500000238418579,
        -0.07023745030164719,
        -0.5
      ],
      "type": "VEC3"
    },
    {
      "bufferView": 2,
      "byteOffset": 187992,
      "componentType": 5126,
      "count": 15666,
      "max": [
        1.0,
        1.0,
        1.0
      ],
      "min": [
        -1.0,
        -1.0,
        -1.0
      ],
      "type": "VEC3"
    },
    {
      "bufferView": 3,
      "componentType": 5126,
      "count": 15666,
      "max": [
        1.0,
        1.0,
        1.0,
        1.0
      ],
      "min": [
        -1.0,
        -1.0,
        -1.0,
        1.0
      ],
      "type": "VEC4"
    },
    {
      "bufferView": 1,
      "componentType": 5126,
      "count": 15666,
      "max": [
        0.9988048672676086,
        0.9807944893836975
      ],
      "min": [
        0.001195169985294342,
        0.0011951923370361328
      ],
      "type": "VEC2"
    },
    {
      "bufferView": 1,
      "byteOffset": 125328,
      "componentType": 5126,
      "count": 15666,
      "max": [
        0.9988048672676086,
        0.9807944893836975
      ],
      "min": [
        0.001195169985294342,
        0.0011951923370361328
      ],
      "type": "VEC2"
    },
    {
      "bufferView": 1,
      "byteOffset": 250656,
      "componentType": 5126,
      "count": 15666,
      "max": [
        0.9988048672676086,
        0.9807944893836975
      ],
      "min": [
        0.001195169985294342,
        0.0011951923370361328
      ],
      "type": "VEC2"
    },
    {
      "bufferView": 0,
      "componentType": 5125,
      "count": 26832,
      "type": "SCALAR"
    }
  ],
  "asset": {
    "extras": {
      "author": "Zende (https://sketchfab.com/Zende)",
      "license": "CC-BY-4.0 (http://creativecommons.org/licenses/by/4.0/)",
      "source": "https://sketchfab.com/3d-models/coffee-menu-b43ab23ea54d4e2a95895115bac23bb4",
      "title": "Coffee Menu"
    },
    "generator": "Sketchfab-14.11.0",
    "version": "2.0"
  },
  "bufferViews": [
    {
      "buffer": 0,
      "byteLength": 107328,
      "name": "floatBufferViews",
      "target": 34963
    },
    {
      "buffer": 0,
      "byteLength": 375984,
      "byteOffset": 107328,
      "byteStride": 8,
      "name": "floatBufferViews",
      "target": 34962
    },
    {
      "buffer": 0,
      "byteLength": 375984,
      "byteOffset": 483312,
      "byteStride": 12,
      "name": "floatBufferViews",
      "target": 34962
    },
    {
      "buffer": 0,
      "byteLength": 250656,
      "byteOffset": 859296,
      "byteStride": 16,
      "name": "floatBufferViews",
      "target": 34962
    }
  ],
  "buffers": [
    {
      "byteLength": 1109952,
      "uri": "scene.bin"
    }
  ],
  "images": [
    {
      "uri": "textures/Menu_baseColor.png"
    },
    {
      "uri": "textures/Menu_metallicRoughness.png"
    },
    {
      "uri": "textures/Menu_normal.png"
    }
  ],
  "materials": [
    {
      "doubleSided": true,
      "name": "Menu",
      "normalTexture": {
        "index": 2,
        "texCoord": 1
      },
      "occlusionTexture": {
        "index": 1
      },
      "pbrMetallicRoughness": {
        "baseColorTexture": {
          "index": 0
        },
        "metallicRoughnessTexture": {
          "index": 1
        }
      }
    }
  ],
  "meshes": [
    {
      "name": "Menu_Menu_0",
      "primitives": [
        {
          "attributes": {
            "NORMAL": 1,
            "POSITION": 0,
            "TANGENT": 2,
            "TEXCOORD_0": 3,
            "TEXCOORD_1": 4,
            "TEXCOORD_2": 5
          },
          "indices": 6,
          "material": 0,
          "mode": 4
        }
      ]
    }
  ],
  "nodes": [
    {
      "children": [
        1
      ],
      "matrix": [
        1.0,
        0.0,
        0.0,
        0.0,
        0.0,
        2.220446049250313e-16,
        -1.0,
        0.0,
        0.0,
        1.0,
        2.220446049250313e-16,
        0.0,
        0.0,
        0.0,
        0.0,
        1.0
      ],
      "name": "Sketchfab_model"
    },
    {
      "children": [
        2
      ],
      "matrix": [
        0.009999999776482582,
        0.0,
        0.0,
        0.0,
        0.0,
        0.0,
        0.009999999776482582,
        0.0,
        0.0,
        -0.009999999776482582,
        0.0,
        0.0,
        0.0,
        0.0,
        0.0,
        1.0
      ],
      "name": "Coffee Menu.fbx"
    },
    {
      "children": [
        3
      ],
      "name": "RootNode"
    },
    {
      "children": [
        4
      ],
      "matrix": [
        100.0,
        0.0,
        0.0,
        0.0,
        0.0,
        -1.629206793918314e-05,
        -99.99999999999868,
        0.0,
        0.0,
        99.99999999999868,
        -1.629206793918314e-05,
        0.0,
        0.0,
        0.0,
        0.0,
        1.0
      ],
      "name": "Menu"
    },
    {
      "mesh": 0,
      "name": "Menu_Menu_0"
    }
  ],
  "samplers": [
    {
      "magFilter": 9729,
      "minFilter": 9987,
      "wrapS": 10497,
      "wrapT": 10497
    }
  ],
  "scene": 0,
  "scenes": [
    {
      "name": "Sketchfab_Scene",
      "nodes": [
        0
      ]
    }
  ],
  "textures": [
    {
      "sampler": 0,
      "source": 0
    },
    {
      "sampler": 0,
      "source": 1
    },
    {
      "sampler": 0,
      "source": 2
    }
  ]
}
